ffmpeg version n4.4.1 Copyright (c) 2000-2021 the FFmpeg developers
  built with gcc 11.1.0 (GCC)
  configuration: --prefix=/usr --disable-debug --disable-static --disable-stripping --enable-amf --enable-avisynth --enable-cuda-llvm --enable-lto --enable-fontconfig --enable-gmp --enable-gnutls --enable-gpl --enable-ladspa --enable-libaom --enable-libass --enable-libbluray --enable-libdav1d --enable-libdrm --enable-libfreetype --enable-libfribidi --enable-libgsm --enable-libiec61883 --enable-libjack --enable-libmfx --enable-libmodplug --enable-libmp3lame --enable-libopencore_amrnb --enable-libopencore_amrwb --enable-libopenjpeg --enable-libopus --enable-libpulse --enable-librav1e --enable-librsvg --enable-libsoxr --enable-libspeex --enable-libsrt --enable-libssh --enable-libsvtav1 --enable-libtheora --enable-libv4l2 --enable-libvidstab --enable-libvmaf --enable-libvorbis --enable-libvpx --enable-libwebp --enable-libx264 --enable-libx265 --enable-libxcb --enable-libxml2 --enable-libxvid --enable-libzimg --enable-nvdec --enable-nvenc --enable-shared --enable-version3
  libavutil      56. 70.100 / 56. 70.100
  libavcodec     58.134.100 / 58.134.100
  libavformat    58. 76.100 / 58. 76.100
  libavdevice    58. 13.100 / 58. 13.100
  libavfilter     7.110.100 /  7.110.100
  libswscale      5.  9.100 /  5.  9.100
  libswresample   3.  9.100 /  3.  9.100
  libpostproc    55.  9.100 / 55.  9.100
Splitting the commandline.
Reading option '-v' ... matched as option 'v' (set logging level) with argument 'debug'.
Reading option '-nostdin' ... matched as option 'stdin' (enable or disable interaction on standard input) with argument 0.
Reading option '-progress' ... matched as option 'progress' (write program-readable progress information) with argument '/tmp/KritaFFmpegProgress.ydMzJZ'.
Reading option '-r' ... matched as option 'r' (set frame rate (Hz value, fraction or abbreviation)) with argument '8'.
Reading option '-start_number' ... matched as AVOption 'start_number' with argument '0'.
Reading option '-i' ... matched as input url with argument '/home/dadard/REPOS/Prog/godot/GoGodotJam_2/images/machine/animations/loading/gif/player_idle%04d.png'.
Reading option '-vf' ... matched as option 'vf' (set video filters) with argument 'palettegen'.
Reading option '-y' ... matched as option 'y' (overwrite output files) with argument '1'.
Reading option '/home/dadard/REPOS/Prog/godot/GoGodotJam_2/images/machine/animations/loading/gif/palette.png' ... matched as output url.
Finished splitting the commandline.
Parsing a group of options: global .
Applying option v (set logging level) with argument debug.
Applying option nostdin (enable or disable interaction on standard input) with argument 0.
Applying option progress (write program-readable progress information) with argument /tmp/KritaFFmpegProgress.ydMzJZ.
[file @ 0x5587cbb57400] Setting default whitelist 'file,crypto,data'
Applying option y (overwrite output files) with argument 1.
Successfully parsed a group of options.
Parsing a group of options: input url /home/dadard/REPOS/Prog/godot/GoGodotJam_2/images/machine/animations/loading/gif/player_idle%04d.png.
Applying option r (set frame rate (Hz value, fraction or abbreviation)) with argument 8.
Successfully parsed a group of options.
Opening an input file: /home/dadard/REPOS/Prog/godot/GoGodotJam_2/images/machine/animations/loading/gif/player_idle%04d.png.
[image2 @ 0x5587cbb578c0] Opening '/home/dadard/REPOS/Prog/godot/GoGodotJam_2/images/machine/animations/loading/gif/player_idle0000.png' for reading
[file @ 0x5587cbb5e000] Setting default whitelist 'file,crypto,data'
[AVIOContext @ 0x5587cbb5e180] Statistics: 2925 bytes read, 0 seeks
[image2 @ 0x5587cbb578c0] Opening '/home/dadard/REPOS/Prog/godot/GoGodotJam_2/images/machine/animations/loading/gif/player_idle0001.png' for reading
[file @ 0x5587cbb5e600] Setting default whitelist 'file,crypto,data'
[AVIOContext @ 0x5587cbb5e7c0] Statistics: 2936 bytes read, 0 seeks
[image2 @ 0x5587cbb578c0] Opening '/home/dadard/REPOS/Prog/godot/GoGodotJam_2/images/machine/animations/loading/gif/player_idle0002.png' for reading
[file @ 0x5587cbb5f880] Setting default whitelist 'file,crypto,data'
[AVIOContext @ 0x5587cbb5fa40] Statistics: 2909 bytes read, 0 seeks
[image2 @ 0x5587cbb578c0] Opening '/home/dadard/REPOS/Prog/godot/GoGodotJam_2/images/machine/animations/loading/gif/player_idle0003.png' for reading
[file @ 0x5587cbb5fe00] Setting default whitelist 'file,crypto,data'
[AVIOContext @ 0x5587cbb5ffc0] Statistics: 2911 bytes read, 0 seeks
[image2 @ 0x5587cbb578c0] Opening '/home/dadard/REPOS/Prog/godot/GoGodotJam_2/images/machine/animations/loading/gif/player_idle0004.png' for reading
[file @ 0x5587cbb65840] Setting default whitelist 'file,crypto,data'
[AVIOContext @ 0x5587cbb65940] Statistics: 2915 bytes read, 0 seeks
[image2 @ 0x5587cbb578c0] Opening '/home/dadard/REPOS/Prog/godot/GoGodotJam_2/images/machine/animations/loading/gif/player_idle0005.png' for reading
[file @ 0x5587cbb65d00] Setting default whitelist 'file,crypto,data'
[AVIOContext @ 0x5587cbb65ec0] Statistics: 2933 bytes read, 0 seeks
[image2 @ 0x5587cbb578c0] Opening '/home/dadard/REPOS/Prog/godot/GoGodotJam_2/images/machine/animations/loading/gif/player_idle0006.png' for reading
[file @ 0x5587cbb66180] Setting default whitelist 'file,crypto,data'
[AVIOContext @ 0x5587cbb65cc0] Statistics: 2905 bytes read, 0 seeks
[image2 @ 0x5587cbb578c0] Opening '/home/dadard/REPOS/Prog/godot/GoGodotJam_2/images/machine/animations/loading/gif/player_idle0007.png' for reading
[file @ 0x5587cbb73880] Setting default whitelist 'file,crypto,data'
[AVIOContext @ 0x5587cbb65cc0] Statistics: 2898 bytes read, 0 seeks
[image2 @ 0x5587cbb578c0] Opening '/home/dadard/REPOS/Prog/godot/GoGodotJam_2/images/machine/animations/loading/gif/player_idle0008.png' for reading
[file @ 0x5587cbb74780] Setting default whitelist 'file,crypto,data'
[AVIOContext @ 0x5587cbb74980] Statistics: 2889 bytes read, 0 seeks
[image2 @ 0x5587cbb578c0] Opening '/home/dadard/REPOS/Prog/godot/GoGodotJam_2/images/machine/animations/loading/gif/player_idle0009.png' for reading
[file @ 0x5587cbb65cc0] Setting default whitelist 'file,crypto,data'
[AVIOContext @ 0x5587cbb747c0] Statistics: 2936 bytes read, 0 seeks
[image2 @ 0x5587cbb578c0] Opening '/home/dadard/REPOS/Prog/godot/GoGodotJam_2/images/machine/animations/loading/gif/player_idle0010.png' for reading
[file @ 0x5587cbb76740] Setting default whitelist 'file,crypto,data'
[AVIOContext @ 0x5587cbb76940] Statistics: 2955 bytes read, 0 seeks
[image2 @ 0x5587cbb578c0] Opening '/home/dadard/REPOS/Prog/godot/GoGodotJam_2/images/machine/animations/loading/gif/player_idle0011.png' for reading
[file @ 0x5587cbb65cc0] Setting default whitelist 'file,crypto,data'
[AVIOContext @ 0x5587cbb76740] Statistics: 2881 bytes read, 0 seeks
Input #0, image2, from '/home/dadard/REPOS/Prog/godot/GoGodotJam_2/images/machine/animations/loading/gif/player_idle%04d.png':
  Duration: 00:00:00.48, start: 0.000000, bitrate: N/A
  Stream #0:0, 12, 1/25: Video: png, 1 reference frame, rgba(pc), 100x100 [SAR 3937:3937 DAR 1:1], 0/1, 25 fps, 25 tbr, 25 tbn, 25 tbc
Successfully opened the file.
Parsing a group of options: output url /home/dadard/REPOS/Prog/godot/GoGodotJam_2/images/machine/animations/loading/gif/palette.png.
Applying option vf (set video filters) with argument palettegen.
Successfully parsed a group of options.
Opening an output file: /home/dadard/REPOS/Prog/godot/GoGodotJam_2/images/machine/animations/loading/gif/palette.png.
Successfully opened the file.
detected 4 logical cores
Stream mapping:
  Stream #0:0 -> #0:0 (png (native) -> png (native))
cur_dts is invalid st:0 (0) [init:0 i_done:0 finish:0] (this is harmless if it occurs once at the start per stream)
    Last message repeated 4 times
[graph 0 input from stream 0:0 @ 0x5587cbb79880] Setting 'video_size' to value '100x100'
[graph 0 input from stream 0:0 @ 0x5587cbb79880] Setting 'pix_fmt' to value '26'
[graph 0 input from stream 0:0 @ 0x5587cbb79880] Setting 'time_base' to value '1/8'
[graph 0 input from stream 0:0 @ 0x5587cbb79880] Setting 'pixel_aspect' to value '3937/3937'
[graph 0 input from stream 0:0 @ 0x5587cbb79880] Setting 'frame_rate' to value '8/1'
[graph 0 input from stream 0:0 @ 0x5587cbb79880] w:100 h:100 pixfmt:rgba tb:1/8 fr:8/1 sar:3937/3937
[format @ 0x5587cbb7aec0] Setting 'pix_fmts' to value 'rgb24|rgba|rgb48be|rgba64be|pal8|gray|ya8|gray16be|ya16be|monob'
[auto_scaler_0 @ 0x5587cbb7cac0] Setting 'flags' to value 'bicubic'
[auto_scaler_0 @ 0x5587cbb7cac0] w:iw h:ih flags:'bicubic' interl:0
[Parsed_palettegen_0 @ 0x5587cbb71d00] auto-inserting filter 'auto_scaler_0' between the filter 'graph 0 input from stream 0:0' and the filter 'Parsed_palettegen_0'
[auto_scaler_1 @ 0x5587cbb7e340] Setting 'flags' to value 'bicubic'
[auto_scaler_1 @ 0x5587cbb7e340] w:iw h:ih flags:'bicubic' interl:0
[format @ 0x5587cbb7aec0] auto-inserting filter 'auto_scaler_1' between the filter 'Parsed_palettegen_0' and the filter 'format'
[AVFilterGraph @ 0x5587cbb71180] query_formats: 4 queried, 1 merged, 2 already done, 0 delayed
[auto_scaler_1 @ 0x5587cbb7e340] picking rgba out of 10 ref:bgra alpha:1
[swscaler @ 0x5587cbb7fbc0] Forcing full internal H chroma due to input having non subsampled chroma
[auto_scaler_0 @ 0x5587cbb7cac0] w:100 h:100 fmt:rgba sar:3937/3937 -> w:100 h:100 fmt:bgra sar:1/1 flags:0x4
[swscaler @ 0x5587cbb96180] Forcing full internal H chroma due to input having non subsampled chroma
[auto_scaler_1 @ 0x5587cbb7e340] w:16 h:16 fmt:bgra sar:1/1 -> w:16 h:16 fmt:rgba sar:1/1 flags:0x4
cur_dts is invalid st:0 (0) [init:0 i_done:0 finish:0] (this is harmless if it occurs once at the start per stream)
    Last message repeated 11 times
[Parsed_palettegen_0 @ 0x5587cbb71d00] 236(+1) colors generated out of 236 colors; ratio=1.000000
[Parsed_palettegen_0 @ 0x5587cbb71d00] Dupped color: FF000000
[Parsed_palettegen_0 @ 0x5587cbb71d00] Dupped color: FFFDFDFD
[Parsed_palettegen_0 @ 0x5587cbb71d00] Dupped color: FFFEFEFE
[Parsed_palettegen_0 @ 0x5587cbb71d00] Dupped color: FFFFFFFF
    Last message repeated 29 times
cur_dts is invalid st:0 (0) [init:0 i_done:0 finish:0] (this is harmless if it occurs once at the start per stream)
Output #0, image2, to '/home/dadard/REPOS/Prog/godot/GoGodotJam_2/images/machine/animations/loading/gif/palette.png':
  Metadata:
    encoder         : Lavf58.76.100
  Stream #0:0, 0, 1/8: Video: png, 1 reference frame, rgba(pc, gbr/unknown/unknown, progressive), 16x16 (0x0) [SAR 1:1 DAR 1:1], 0/1, q=2-31, 200 kb/s, 8 fps, 8 tbn
    Metadata:
      encoder         : Lavc58.134.100 png
Clipping frame in rate conversion by 0.000008
frame=    1 fps=0.0 q=0.0 size=N/A time=00:00:00.00 bitrate=N/A speed=   0x    cur_dts is invalid st:0 (0) [init:1 i_done:0 finish:0] (this is harmless if it occurs once at the start per stream)
[out_0_0 @ 0x5587cbb60300] EOF on sink link out_0_0:default.
No more output streams to write to, finishing.
[image2 @ 0x5587cbb5d340] Opening '/home/dadard/REPOS/Prog/godot/GoGodotJam_2/images/machine/animations/loading/gif/palette.png' for writing
[file @ 0x5587cbd096c0] Setting default whitelist 'file,crypto,data'
[AVIOContext @ 0x5587cbd097c0] Statistics: 0 seeks, 1 writeouts
frame=    1 fps=0.0 q=-0.0 Lsize=N/A time=00:00:00.12 bitrate=N/A speed=13.9x    
[AVIOContext @ 0x5587cbb57740] Statistics: 0 seeks, 2 writeouts
video:1kB audio:0kB subtitle:0kB other streams:0kB global headers:0kB muxing overhead: unknown
Input file #0 (/home/dadard/REPOS/Prog/godot/GoGodotJam_2/images/machine/animations/loading/gif/player_idle%04d.png):
  Input stream #0:0 (video): 12 packets read (34993 bytes); 12 frames decoded; 
  Total: 12 packets (34993 bytes) demuxed
Output file #0 (/home/dadard/REPOS/Prog/godot/GoGodotJam_2/images/machine/animations/loading/gif/palette.png):
  Output stream #0:0 (video): 1 frames encoded; 1 packets muxed (737 bytes); 
  Total: 1 packets (737 bytes) muxed
12 frames successfully decoded, 0 decoding errors
